<svg xmlns="http://www.w3.org/2000/svg" width="383" height="307" viewBox="0 0 383 307" fill="none"><path d="M331.669 136.164H216.516C213.416 136.164 210.905 138.675 210.905 141.771C210.905 144.869 213.416 147.378 216.516 147.378H331.669C334.769 147.378 337.279 144.869 337.279 141.771C337.279 138.675 334.766 136.164 331.669 136.164Z" fill="url(#paint0_linear)"></path><path d="M331.669 166.21H216.516C213.416 166.21 210.905 168.719 210.905 171.817C210.905 174.913 213.416 177.424 216.516 177.424H331.669C334.769 177.424 337.279 174.913 337.279 171.817C337.279 168.719 334.766 166.21 331.669 166.21Z" fill="url(#paint1_linear)"></path><path d="M331.669 196.254H216.516C213.416 196.254 210.905 198.766 210.905 201.861C210.905 204.96 213.416 207.468 216.516 207.468H331.669C334.769 207.468 337.279 204.96 337.279 201.861C337.279 198.766 334.766 196.254 331.669 196.254Z" fill="url(#paint2_linear)"></path><path d="M331.669 226.301H216.516C213.416 226.301 210.905 228.812 210.905 231.908C210.905 235.003 213.416 237.515 216.516 237.515H331.669C334.769 237.515 337.279 235.003 337.279 231.908C337.279 228.812 334.766 226.301 331.669 226.301Z" fill="url(#paint3_linear)"></path><path d="M71.0996 69.4704C78.32 68.5622 85.5024 68.1037 92.4511 68.1037C130.87 68.1037 156.304 81.4845 168.045 89.4568C169.009 90.1139 170.108 90.4293 171.192 90.4293C172.989 90.4293 174.754 89.5678 175.838 87.9733C177.58 85.4123 176.913 81.9254 174.351 80.182C161.546 71.4854 133.874 56.8899 92.4511 56.8899C85.0378 56.8899 77.3849 57.3805 69.7028 58.3442C66.6288 58.7296 64.449 61.5331 64.8347 64.6052C65.2204 67.6774 68.0168 69.8559 71.0996 69.4704Z" fill="url(#paint4_linear)"></path><path d="M71.0996 106.243C78.32 105.334 85.5024 104.876 92.4511 104.876C130.87 104.876 156.304 118.254 168.045 126.229C169.009 126.886 170.108 127.199 171.192 127.199C172.989 127.199 174.754 126.34 175.838 124.745C177.58 122.181 176.913 118.695 174.351 116.954C161.546 108.255 133.874 93.662 92.4511 93.662C85.0378 93.662 77.3849 94.1497 69.7028 95.1134C66.6288 95.5018 64.449 98.3052 64.8347 101.377C65.2204 104.45 68.0168 106.628 71.0996 106.243Z" fill="url(#paint5_linear)"></path><path d="M171.192 163.971C172.989 163.971 174.751 163.112 175.838 161.515C177.58 158.954 176.913 155.467 174.351 153.726C161.543 145.027 133.874 130.434 92.4511 130.434C85.0378 130.434 77.382 130.922 69.7028 131.885C66.6259 132.271 64.449 135.074 64.8347 138.15C65.2204 141.222 68.0168 143.397 71.0996 143.012C78.32 142.106 85.5024 141.648 92.4511 141.648C130.87 141.648 156.304 155.026 168.045 163.001C169.009 163.658 170.105 163.971 171.192 163.971Z" fill="url(#paint6_linear)"></path><path d="M174.351 190.498C164.065 183.51 141.93 171.303 109.259 168.036C106.17 167.723 103.426 169.975 103.119 173.056C102.81 176.136 105.06 178.884 108.142 179.194C138.345 182.214 158.636 193.384 168.045 199.773C169.009 200.43 170.105 200.743 171.192 200.743C172.989 200.743 174.751 199.884 175.838 198.287C177.579 195.726 176.913 192.239 174.351 190.498Z" fill="url(#paint7_linear)"></path><path d="M82.2619 167.504C78.133 167.741 73.9077 168.129 69.7028 168.658C66.6259 169.043 64.449 171.847 64.8347 174.919C65.1912 177.754 67.6077 179.828 70.3924 179.828C70.6262 179.828 70.8629 179.813 71.0996 179.784C75.056 179.287 79.0301 178.922 82.9106 178.698C86.005 178.519 88.366 175.868 88.1878 172.775C88.0096 169.686 85.3534 167.314 82.2619 167.504Z" fill="url(#paint8_linear)"></path><path d="M329.22 67.8526H218.965C214.52 67.8526 210.905 71.465 210.905 75.9067V105.682C210.905 110.121 214.52 113.733 218.965 113.733H234.171C237.271 113.733 239.781 111.222 239.781 108.126C239.781 105.031 237.271 102.519 234.171 102.519H222.126V79.0665H326.058V102.519H260.277C257.176 102.519 254.666 105.031 254.666 108.126C254.666 111.222 257.176 113.733 260.277 113.733H329.22C333.664 113.733 337.279 110.121 337.279 105.682V75.9067C337.279 71.465 333.664 67.8526 329.22 67.8526Z" fill="url(#paint9_linear)"></path><path d="M373.901 64.1059H362.294V43.6464C362.294 37.5664 357.344 32.6194 351.261 32.6194H193.586C189.311 29.0742 177.249 19.9571 157.949 12.2271C135.969 3.42541 99.9315 -5.18065 53.0821 3.81088C48.1029 4.76581 44.4883 9.13747 44.4883 14.2042V32.6194H29.5274C24.6622 32.6194 20.7057 36.5764 20.7057 41.4357V64.1059H9.09929C4.08211 64.1059 0 68.1855 0 73.1996V290.871C0 295.885 4.08211 299.968 9.09929 299.968H158.343C159.325 299.968 160.26 300.435 160.845 301.224C163.539 304.839 167.837 307 172.349 307H210.651C215.16 307 219.461 304.839 222.155 301.224C222.74 300.438 223.678 299.968 224.657 299.968H373.901C378.918 299.968 383 295.885 383 290.871V73.1996C383 68.1855 378.918 64.1059 373.901 64.1059ZM197.11 43.8333H351.074V269.209H197.11V43.8333ZM55.709 14.7269C99.3704 6.45958 132.843 14.3414 153.262 22.4306C170.625 29.3108 181.772 37.5021 185.89 40.8225V263.488C171.095 253.448 139.262 236.551 92.565 236.551C81.1572 236.551 68.8554 237.562 55.709 239.924V14.7269ZM31.9264 43.8333H44.4883V240.692C44.4883 243.84 45.8763 246.804 48.2987 248.822C50.7152 250.831 53.8681 251.661 56.9568 251.094C100.221 243.163 133.383 251.1 153.583 259.157C161.882 262.469 168.699 266.028 174.003 269.206H31.9264V43.8333ZM371.779 288.754H224.657C220.148 288.754 215.847 290.912 213.152 294.527C212.568 295.316 211.63 295.786 210.651 295.786H172.349C171.367 295.786 170.432 295.316 169.848 294.53C167.153 290.912 162.852 288.754 158.343 288.754H11.2207V75.3197H20.7057V271.606C20.7057 276.466 24.6651 280.423 29.5274 280.423H351.261C357.344 280.423 362.294 275.476 362.294 269.393V75.3197H371.779V288.754Z" fill="url(#paint10_linear)"></path><defs><linearGradient id="paint0_linear" x1="-1.46424" y1="26.8624" x2="204.92" y2="388.475" gradientUnits="userSpaceOnUse"><stop stop-color="#1D9BC5"></stop><stop offset="1" stop-color="#00D2FF"></stop></linearGradient><linearGradient id="paint1_linear" x1="-1.46424" y1="26.8624" x2="204.92" y2="388.475" gradientUnits="userSpaceOnUse"><stop stop-color="#1D9BC5"></stop><stop offset="1" stop-color="#00D2FF"></stop></linearGradient><linearGradient id="paint2_linear" x1="-1.46424" y1="26.8624" x2="204.92" y2="388.475" gradientUnits="userSpaceOnUse"><stop stop-color="#1D9BC5"></stop><stop offset="1" stop-color="#00D2FF"></stop></linearGradient><linearGradient id="paint3_linear" x1="-1.46424" y1="26.8624" x2="204.92" y2="388.475" gradientUnits="userSpaceOnUse"><stop stop-color="#1D9BC5"></stop><stop offset="1" stop-color="#00D2FF"></stop></linearGradient><linearGradient id="paint4_linear" x1="-1.46424" y1="26.8624" x2="204.92" y2="388.475" gradientUnits="userSpaceOnUse"><stop stop-color="#1D9BC5"></stop><stop offset="1" stop-color="#00D2FF"></stop></linearGradient><linearGradient id="paint5_linear" x1="-1.46424" y1="26.8624" x2="204.92" y2="388.475" gradientUnits="userSpaceOnUse"><stop stop-color="#1D9BC5"></stop><stop offset="1" stop-color="#00D2FF"></stop></linearGradient><linearGradient id="paint6_linear" x1="-1.46424" y1="26.8624" x2="204.92" y2="388.475" gradientUnits="userSpaceOnUse"><stop stop-color="#1D9BC5"></stop><stop offset="1" stop-color="#00D2FF"></stop></linearGradient><linearGradient id="paint7_linear" x1="-1.46424" y1="26.8624" x2="204.92" y2="388.475" gradientUnits="userSpaceOnUse"><stop stop-color="#1D9BC5"></stop><stop offset="1" stop-color="#00D2FF"></stop></linearGradient><linearGradient id="paint8_linear" x1="-1.46424" y1="26.8624" x2="204.92" y2="388.475" gradientUnits="userSpaceOnUse"><stop stop-color="#1D9BC5"></stop><stop offset="1" stop-color="#00D2FF"></stop></linearGradient><linearGradient id="paint9_linear" x1="-1.46424" y1="26.8624" x2="204.92" y2="388.475" gradientUnits="userSpaceOnUse"><stop stop-color="#1D9BC5"></stop><stop offset="1" stop-color="#00D2FF"></stop></linearGradient><linearGradient id="paint10_linear" x1="-1.46424" y1="26.8624" x2="204.92" y2="388.475" gradientUnits="userSpaceOnUse"><stop stop-color="#1D9BC5"></stop><stop offset="1" stop-color="#00D2FF"></stop></linearGradient></defs></svg>